<!-- Generated by IcoMoon.io -->
<svg version="1.1" xmlns="http://www.w3.org/2000/svg" width="32" height="32" viewBox="0 0 32 32">
<title>globe</title>
<path d="M27.311 4.689c-6.251-6.251-16.37-6.252-22.622 0-6.251 6.251-6.252 16.37 0 22.622 6.251 6.251 16.37 6.252 22.622 0s6.252-16.37 0-22.622zM26.643 25.031c-0.747-0.668-1.547-1.26-2.39-1.77 0.557-1.924 0.887-4.041 0.965-6.242h4.703c-0.213 2.966-1.352 5.749-3.278 8.012zM2.079 17.019h4.703c0.078 2.201 0.408 4.318 0.965 6.242-0.843 0.51-1.642 1.101-2.39 1.77-1.926-2.262-3.066-5.045-3.278-8.012zM5.357 6.969c0.747 0.668 1.547 1.26 2.39 1.77-0.557 1.924-0.887 4.041-0.965 6.242h-4.703c0.213-2.966 1.352-5.749 3.278-8.012zM14.981 8.949c-1.663-0.119-3.266-0.528-4.752-1.204 0.864-2.226 2.458-4.895 4.752-5.557zM14.981 10.992v3.989h-6.159c0.071-1.862 0.334-3.649 0.773-5.285 1.689 0.738 3.505 1.179 5.386 1.296zM14.981 17.019v3.989c-1.881 0.117-3.697 0.558-5.386 1.296-0.439-1.636-0.703-3.423-0.773-5.285zM14.981 23.051v6.76c-2.294-0.662-3.887-3.331-4.752-5.556 1.486-0.675 3.089-1.085 4.752-1.204zM17.019 23.051c1.663 0.119 3.266 0.528 4.752 1.204-0.864 2.226-2.458 4.895-4.752 5.556zM17.019 21.008v-3.989h6.159c-0.071 1.862-0.334 3.649-0.773 5.285-1.689-0.738-3.505-1.179-5.386-1.296zM17.019 14.981v-3.989c1.881-0.117 3.697-0.558 5.386-1.296 0.439 1.636 0.703 3.423 0.773 5.285zM17.019 8.949v-6.76c2.294 0.662 3.887 3.331 4.752 5.557-1.486 0.675-3.089 1.085-4.752 1.204zM21.598 3.207c1.305 0.571 2.522 1.346 3.614 2.308-0.519 0.458-1.068 0.873-1.64 1.245-0.508-1.258-1.158-2.481-1.974-3.552zM8.428 6.759c-0.572-0.371-1.12-0.787-1.64-1.245 1.091-0.961 2.309-1.736 3.614-2.308-0.816 1.071-1.465 2.294-1.974 3.552zM8.428 25.241c0.508 1.258 1.158 2.481 1.974 3.552-1.305-0.571-2.522-1.346-3.614-2.308 0.519-0.458 1.068-0.873 1.64-1.245zM23.572 25.241c0.572 0.371 1.12 0.787 1.64 1.245-1.091 0.961-2.309 1.736-3.614 2.308 0.816-1.071 1.465-2.294 1.974-3.552zM25.218 14.981c-0.078-2.201-0.408-4.318-0.965-6.242 0.843-0.51 1.642-1.101 2.39-1.769 1.926 2.262 3.066 5.045 3.278 8.012z"></path>
</svg>
