<svg height="512" viewBox="0 0 64 64" width="512" xmlns="http://www.w3.org/2000/svg"><g id="Player-Gamer-Esport-Video_Game-Competition" data-name="Player-Gamer-Esport-Video Game-Competition"><path d="m15 17h2v2h-2z"/><path d="m21 17h2v2h-2z"/><path d="m46 44h2v2h-2z"/><path d="m36 30h2v2h-2z"/><path d="m40 30h8v2h-8z"/><path d="m36 34h12v2h-12z"/><path d="m53 6h-12a8.005 8.005 0 0 0 -6.92 4h-4.51a10.988 10.988 0 0 0 -21.15 0h-1.42a5 5 0 0 0 -5 5v30a5 5 0 0 0 5 5h14.87l-.75 6h-2.12a3 3 0 0 0 0 6h18a3 3 0 0 0 0-6h-2.12l-.75-6h14.87a5 5 0 0 0 5-5v-23.52l.38.3a1.02 1.02 0 0 0 .62.22h3a3.009 3.009 0 0 0 3-3v-5a8.011 8.011 0 0 0 -8-8zm-24 11a2.006 2.006 0 0 1 -2 2v-4a2.006 2.006 0 0 1 2 2zm-1 3.86v1.14h-1.59a7.14 7.14 0 0 0 .33-1.02c.09 0 .17.02.26.02a4.091 4.091 0 0 0 1-.14zm0-7.86v.14a4.091 4.091 0 0 0 -1-.14c-.09 0-.17.02-.26.02a7.14 7.14 0 0 0 -.33-1.02h1.53a8.262 8.262 0 0 1 .06 1zm-15.36-6.36a8.979 8.979 0 0 1 14.83 3.36h-2.23a7.99 7.99 0 0 0 -12.48 0h-2.24a8.838 8.838 0 0 1 2.12-3.36zm6.36 25.36a4.015 4.015 0 0 0 3.73-2.58l4.3 1.91a5.015 5.015 0 0 1 2.97 4.57v4.1h-22v-4.1a5.015 5.015 0 0 1 2.97-4.57l4.3-1.91a4.015 4.015 0 0 0 3.73 2.58zm-2-4v-1.26a7.822 7.822 0 0 0 4 0v1.26a2 2 0 0 1 -4 0zm5.31-4a5.995 5.995 0 0 1 -9.31-5v-3h5a1 1 0 0 0 .45-.11l3.35-1.67 1.49 1.49a1.033 1.033 0 0 0 .71.29h1v3a5.984 5.984 0 0 1 -.81 3h-5.19v2zm-9.22-10a5.993 5.993 0 0 1 11.82 0h-.5l-1.7-1.71a1 1 0 0 0 -1.16-.18l-3.79 1.89zm-3.09-1a8.262 8.262 0 0 1 .06-1h1.53a7.14 7.14 0 0 0 -.33 1.02c-.09 0-.17-.02-.26-.02a4.091 4.091 0 0 0 -1 .14zm1 2v4a2 2 0 0 1 0-4zm-7 0a3.009 3.009 0 0 1 3-3h1.05c-.03.33-.05.66-.05 1v1.38a3.981 3.981 0 0 0 3 6.62c.09 0 .17-.02.26-.02a7.993 7.993 0 0 0 3.74 4.94v1.43l-4.84 2.15a7.007 7.007 0 0 0 -4.16 6.4v4.1h-2zm33 43a1 1 0 0 1 0 2h-18a1 1 0 0 1 0-2zm-13.87-2 .75-6h8.24l.75 6zm28.87-11a3.009 3.009 0 0 1 -3 3h-42a3.009 3.009 0 0 1 -3-3v-3h48zm0-5h-20v-4.1a7.007 7.007 0 0 0 -4.16-6.4l-4.84-2.15v-1.43a8.1 8.1 0 0 0 2.24-1.92h2.76a2.006 2.006 0 0 0 2-2v-2.38a3.932 3.932 0 0 0 0-5.24v-1.38c0-.34-.02-.67-.05-1h3.31a8.242 8.242 0 0 0 -.26 2v5a3.009 3.009 0 0 0 3 3h3a1.02 1.02 0 0 0 .62-.22l4.52-3.56a1.02 1.02 0 0 1 .62-.22h4.48a1.076 1.076 0 0 1 .62.21l2.14 1.7zm7-21a1 1 0 0 1 -1 1h-2.65l-4.25-3.35a3.006 3.006 0 0 0 -1.86-.65h-4.48a3.006 3.006 0 0 0 -1.86.65l-4.25 3.35h-2.65a1 1 0 0 1 -1-1v-5a6 6 0 0 1 6-6h12a6 6 0 0 1 6 6z"/><path d="m41 10h-2v2h-2v2h2v2h2v-2h2v-2h-2z"/><path d="m53 10h2v2h-2z"/><path d="m55 12h2v2h-2z"/><path d="m53 14h2v2h-2z"/><path d="m51 12h2v2h-2z"/><path d="m44 10h2v2h-2z"/><path d="m48 10h2v2h-2z"/></g></svg>