<svg id="Outline" height="512" viewBox="0 0 512 512" width="512" xmlns="http://www.w3.org/2000/svg"><path d="m40 144v224a8 8 0 0 0 4 6.93l208 120a8 8 0 0 0 8 0l208-120a8 8 0 0 0 4-6.93v-224a8 8 0 0 0 -4-6.928l-208-120a8 8 0 0 0 -8 0l-208 120a8 8 0 0 0 -4 6.928zm16 13.851 192 110.77v205.528l-192-110.769zm400 205.529-192 110.768v-205.528l192-110.768zm-200-330.144 191.99 110.764-191.99 110.764-191.991-110.764z"/><path d="m256 168c22.056 0 40-14.355 40-32s-17.944-32-40-32-40 14.355-40 32 17.944 32 40 32zm0-48c13.009 0 24 7.327 24 16s-10.991 16-24 16-24-7.327-24-16 10.991-16 24-16z"/><path d="m304 328c16.691 0 34.081-12.945 39.59-29.471 3.009-9.023 2-18-2.778-24.622-4.542-6.292-12.127-9.907-20.812-9.907-16.69 0-34.08 12.944-39.59 29.471-3.007 9.023-1.994 18 2.78 24.621 4.537 6.301 12.122 9.908 20.81 9.908zm-8.411-29.47c3.347-10.041 14.525-18.53 24.411-18.53 2.5 0 5.886.566 7.83 3.264 1.731 2.4 1.943 6.121.581 10.206-3.35 10.049-14.529 18.53-24.411 18.53-2.5 0-5.886-.566-7.83-3.264-1.732-2.397-1.944-6.117-.583-10.202z"/><path d="m399.656 367.854c16.62 0 34.06-12.883 39.7-29.331 3.1-9.022 2.155-18-2.581-24.629-4.489-6.288-12.036-9.893-20.705-9.893-16.621 0-34.06 12.884-39.7 29.331-3.1 9.023-2.154 18 2.581 24.632 4.489 6.285 12.036 9.89 20.705 9.89zm-8.151-29.332c3.444-10.04 14.695-18.522 24.568-18.522 2.466 0 5.8.554 7.685 3.191 1.694 2.371 1.864 6.068.467 10.14-3.445 10.041-14.7 18.524-24.569 18.524-2.466 0-5.8-.553-7.684-3.19-1.695-2.373-1.865-6.065-.467-10.143z"/><path d="m191.887 360c-8.686 0-16.271 3.611-20.81 9.908-4.774 6.624-5.787 15.6-2.779 24.621 5.508 16.526 22.902 29.471 39.589 29.471 8.687 0 16.271-3.611 20.81-9.908 4.774-6.624 5.787-15.6 2.78-24.622-5.509-16.526-22.899-29.47-39.59-29.47zm23.83 44.736c-1.944 2.7-5.331 3.264-7.83 3.264-9.884 0-21.062-8.485-24.41-18.529-1.362-4.085-1.15-7.805.58-10.206 1.944-2.7 5.331-3.264 7.83-3.264 9.884 0 21.063 8.485 24.411 18.529 1.361 4.085 1.15 7.805-.581 10.206z"/><path d="m168.412 298.534c5.509 16.526 22.899 29.466 39.588 29.466 8.687 0 16.272-3.611 20.811-9.908 4.774-6.624 5.787-15.6 2.779-24.621-5.507-16.522-22.897-29.471-39.59-29.471-8.686 0-16.271 3.611-20.809 9.908-4.775 6.624-5.788 15.6-2.78 24.621zm15.76-15.266c1.944-2.698 5.328-3.268 7.828-3.268 9.885 0 21.063 8.485 24.411 18.53 1.362 4.085 1.15 7.805-.58 10.206-1.944 2.702-5.331 3.264-7.831 3.264-9.883 0-21.062-8.485-24.41-18.53-1.361-4.081-1.149-7.801.582-10.202z"/><path d="m111.994 272c8.687 0 16.272-3.611 20.81-9.908 4.775-6.624 5.787-15.6 2.779-24.622-5.508-16.526-22.9-29.47-39.589-29.47-8.686 0-16.271 3.611-20.81 9.908-4.774 6.624-5.787 15.6-2.779 24.622 5.508 16.526 22.895 29.47 39.589 29.47zm-23.83-44.736c1.944-2.7 5.331-3.264 7.83-3.264 9.884 0 21.063 8.485 24.411 18.53 1.362 4.085 1.15 7.805-.581 10.206-1.944 2.7-5.331 3.264-7.83 3.264-9.884 0-21.062-8.485-24.411-18.53-1.361-4.085-1.149-7.805.581-10.206z"/><path d="m95.927 304c-8.669 0-16.216 3.605-20.706 9.893-4.735 6.63-5.675 15.608-2.58 24.629 5.643 16.449 23.082 29.332 39.7 29.332 8.669 0 16.216-3.6 20.705-9.892 4.736-6.631 5.676-15.608 2.58-24.631-5.639-16.447-23.078-29.331-39.699-29.331zm24.1 44.664c-1.883 2.637-5.219 3.19-7.685 3.19-9.873 0-21.124-8.482-24.568-18.523-1.4-4.071-1.227-7.768.467-10.139 1.883-2.637 5.219-3.191 7.685-3.191 9.873 0 21.124 8.482 24.569 18.522 1.398 4.077 1.228 7.769-.466 10.141z"/></svg>